<?xml version="1.0" encoding="UTF-8"?>
<svg id="Layer_1" xmlns="http://www.w3.org/2000/svg" version="1.1" viewBox="0 0 105.21 94.82">
  <!-- Generator: Adobe Illustrator 30.6.0, SVG Export Plug-In . SVG Version: 2.1.4 Build 109)  -->
  <path d="M52.62,93.3c4.29-4.31,8.32-8.07,15.62-7.82,17.24.56,38.07-5.92,35.18-35.96-1.96-20.33-16.42-17.99-.79-32.84l-18.37-13.28c-6.26,11.72-26.19,10.93-31.66,0-5.48,10.93-25.42,11.72-31.67,0L2.57,16.67c15.64,14.86,1.16,12.53-.78,32.84-2.88,30.03,17.95,36.52,35.18,35.96,7.3-.25,11.33,3.5,15.64,7.82h.01Z" fill="#fff" stroke="gray" stroke-miterlimit="10" stroke-width="3.04"/>
  <g>
    <path d="M17.09,60.63v-4.16h8.27v-21.38l-8.01,1.15v-4.27l12.69-2.03v26.52h7.43v4.16h-20.39,0Z" fill="gray"/>
    <path d="M41.43,45.33c0-8.73,4.53-15.97,12.07-15.97s12.02,7.23,12.02,15.97c0,9.21-4.21,15.92-12.02,15.92s-12.07-6.71-12.07-15.92ZM46.11,45.44c0,6.76,2.75,11.91,7.33,11.91s7.28-5.15,7.28-11.91-2.71-11.91-7.28-11.91-7.33,4.99-7.33,11.91Z" fill="gray"/>
    <path d="M69.97,60.63v-4.16h8.27v-21.38l-8.01,1.15v-4.27l12.69-2.03v26.52h7.43v4.16h-20.39Z" fill="gray"/>
  </g>
</svg>