<?xml version="1.0" encoding="UTF-8"?>
<svg id="Layer_1" xmlns="http://www.w3.org/2000/svg" version="1.1" viewBox="0 0 99 99">
  <!-- Generator: Adobe Illustrator 30.6.0, SVG Export Plug-In . SVG Version: 2.1.4 Build 109)  -->
  <path d="M49.8,88.47c3.63-3.65,7.04-6.83,13.22-6.62,14.59.47,32.21-5.01,29.77-30.43-1.66-17.2-13.89-15.22-.67-27.79l-15.54-11.24c-5.3,9.92-22.16,9.25-26.79,0-4.64,9.25-21.51,9.92-26.8,0l-15.54,11.24c13.23,12.57.98,10.6-.66,27.79-2.44,25.41,15.19,30.9,29.77,30.43,6.18-.21,9.59,2.96,13.23,6.62Z" fill="#fff" stroke="gray" stroke-miterlimit="10" stroke-width="2.57"/>
  <g>
    <path d="M19.74,60.82v-3.52h7v-18.09l-6.78.97v-3.61l10.74-1.72v22.44h6.29v3.52h-17.25Z" fill="gray"/>
    <path d="M40.33,47.88c0-7.39,3.83-13.51,10.21-13.51s10.17,6.12,10.17,13.51c0,7.79-3.56,13.47-10.17,13.47s-10.21-5.68-10.21-13.47ZM44.29,47.97c0,5.72,2.33,10.08,6.2,10.08s6.16-4.36,6.16-10.08-2.29-10.08-6.16-10.08-6.2,4.22-6.2,10.08Z" fill="gray"/>
    <path d="M64.48,60.82v-3.52h7v-18.09l-6.78.97v-3.61l10.74-1.72v22.44h6.29v3.52h-17.25Z" fill="gray"/>
  </g>
</svg>